<?xml version="1.0" encoding="utf-8"?>
<!-- Generator: Adobe Illustrator 21.1.0, SVG Export Plug-In . SVG Version: 6.00 Build 0)  -->
<svg version="1.1" id="Layer_1" xmlns="http://www.w3.org/2000/svg" xmlns:xlink="http://www.w3.org/1999/xlink" x="0px" y="0px"
	 viewBox="0 0 281.7 390.3" style="enable-background:new 0 0 281.7 390.3;" xml:space="preserve">
<style type="text/css">
	.st0{fill:#C894C3;}
	.st1{fill:#E9BED9;}
	.st2{fill:#D394BD;}
	.st3{fill:#E89EC5;}
	.st4{fill:#CFABD0;}
	.st5{fill:#B582B9;}
</style>
<path class="st0" d="M60.3,231.8c0,0,92.8-138.4,78.2-161.6s-101-47-94.3-17.9s39.4,34.4,37.2,40.5s-26,34.8-46.9,25.5
	S57.3,168,57.3,168S39.4,206.1,60.3,231.8z"/>
<path class="st1" d="M0.2,0c0,0,113,92,78,109S42.6,71,42.6,71s-6.4,31-15.4,30s-19,41-13,47s67,23,56,47s-42,27-45,23s-28-27-25-34
	S0.2,0,0.2,0z"/>
<path class="st2" d="M2.6,190c0,0,95.3,4,82.5,64.9s61.6,85,61.6,85s67.1,44,23.4,49.9c-43.8,5.9-49.7-40.3-49.7-40.3
	s-64.1,12.8-63.7-15c0.4-27.7-7.8-59.3-21.4-69.7c-13.7-10.4-9.7-51.4-9.7-51.4S-12.4,203.4,2.6,190z"/>
<path class="st3" d="M237.4,100.2c0,0-22.8-92-50.6-91.2s-46.5-18.9-75.7,20.3S78,2.5,78,2.5S47.2-9.8,32.9,20.2
	s36.8,74.9,41.8,72.2s34.2-36.6,45.8-26.8s-16,52.6,4.3,54.6c20.3,2,36.4-33.9,33.5-37.9c-3-4,32.4,41.2,47,31
	S230.6,115.8,237.4,100.2z"/>
<path class="st4" d="M115.7,349.7c0,0-44,32-82.5-36.1C1.1,256.7,69.5,200.8,69.5,200.8s53.8,0.7,30.9,36.1s-59.2,48.6-39.6,64.2
	s49.9-38.6,51.5-46.2c1.6-7.6-4.2-147.8,12.4-134.8c24.9,19.4,21.8,131.4,21.8,131.4L115.7,349.7z"/>
<path class="st5" d="M215.7,0c0,0-17.3,45.3,4,60.2s-25.9,53.2-25.9,53.2S227,165,241.7,143s-8-42.7-8-42.7s36.7-8,31.3-22.7
	s-24.7-14-24.7-14S289.7,60.3,275,47s-49.3-15.3-49.3-15.3S241.7,6.3,215.7,0z"/>
</svg>
